<?xml version="1.0" encoding="utf-8"?>
<svg viewBox="0 0 115.675 115.676" xmlns="http://www.w3.org/2000/svg">
  <g transform="matrix(1, 0, 0, 1, -312.320864, -240.371721)">
    <path d="M 375.356 349.685 C 379.49 349.689 383.599 349.337 387.681 348.63 C 389.174 348.369 390.665 347.79 392.243 346.857 C 392.327 346.806 392.376 346.73 392.39 346.625 C 392.713 344.204 393.023 341.742 393.323 339.359 C 393.534 337.69 393.749 335.963 393.97 334.268 C 394.283 331.854 394.554 329.869 394.821 328.02 C 394.85 327.817 394.879 327.615 394.91 327.412 C 395.076 326.303 395.248 325.155 395.272 323.991 C 395.292 323.059 394.941 322.798 394.73 322.723 C 394.341 322.587 393.861 322.888 393.509 323.489 C 392.626 324.992 392.238 326.99 391.898 328.752 C 391.841 329.041 391.786 329.323 391.73 329.599 C 391.548 330.5 391.375 331.418 391.21 332.304 C 390.907 333.923 390.594 335.597 390.203 337.218 C 390.175 337.33 390.142 337.481 390.1 337.66 C 389.311 341.169 388.559 343.004 387.865 343.114 C 387.5 343.172 387.128 342.623 386.884 342.153 C 385.384 339.287 384.89 335.938 384.411 332.701 C 384.268 331.724 384.119 330.714 383.944 329.735 L 383.94 329.708 C 383.725 328.5 383.325 326.246 381.642 326.335 C 380.067 326.413 379.701 328.745 379.459 330.286 C 379.409 330.605 379.366 330.881 379.32 331.097 C 378.83 333.347 378.235 335.597 377.552 337.783 C 377.456 338.086 377.364 338.4 377.27 338.723 C 376.683 340.713 376.016 342.971 374.41 343.982 C 373.955 344.269 373.522 344.334 373.088 344.183 C 372.101 343.838 371.418 342.474 371.17 341.903 C 370.111 339.465 369.578 336.752 369.062 334.128 C 368.606 331.816 368.136 329.427 367.308 327.192 C 366.786 325.79 366.042 325.142 365.102 325.275 C 363.984 325.43 363.437 326.74 363.124 327.712 C 362.564 329.445 362.178 331.249 361.805 332.995 C 361.468 334.572 361.12 336.206 360.646 337.768 C 360.536 338.13 360.438 338.501 360.346 338.86 C 360.061 339.952 359.793 340.982 359.158 341.84 C 359.06 341.972 358.953 342.099 358.839 342.139 C 358.589 342.222 358.3 341.898 358.137 341.56 C 357.813 340.895 357.67 340.126 357.541 339.328 C 356.778 334.636 356.284 329.786 355.808 325.095 C 355.691 323.954 355.574 322.816 355.456 321.679 C 355.408 321.224 355.355 320.767 355.302 320.308 C 355.177 319.244 355.049 318.148 354.994 317.068 C 355.176 317.179 355.357 317.3 355.535 317.42 C 355.66 317.504 355.783 317.585 355.906 317.665 C 361.258 321.108 371.523 324.774 380.012 324.787 L 380.072 324.787 C 384.933 324.787 388.842 323.853 392.021 321.933 C 395.989 319.534 398.708 315.362 399.115 311.045 C 399.58 306.094 396.736 301.227 392.775 300.195 C 387.788 298.895 384.387 302.257 381.097 305.509 C 380.126 306.468 379.12 307.462 378.104 308.298 C 374.395 311.347 368.566 314.916 361.827 314.612 C 357.852 314.431 354.72 312.639 353.447 309.818 C 351.681 305.906 353.948 301.04 357.087 299.119 C 361.367 296.501 366.693 297.869 371.352 299.355 C 376.939 301.141 382.856 300.309 387.583 297.077 C 389.409 295.829 390.98 294.13 392.006 292.297 C 393.192 290.18 393.62 287.956 393.243 285.86 C 392.658 282.598 390.07 279.867 386.803 279.066 C 383.328 278.214 380.031 279.521 377.878 280.769 C 375.159 282.344 372.814 284.595 370.546 286.77 C 369.949 287.343 369.344 287.976 368.759 288.589 C 366.369 291.085 363.897 293.668 360.612 293.874 C 357.584 294.064 354.694 291.917 354.034 288.987 C 353.33 285.86 355.133 282.641 357.234 280.837 C 359.063 279.264 361.29 278.303 363.444 277.374 C 363.969 277.145 364.513 276.912 365.042 276.672 C 367.482 275.566 370.5 273.917 372.183 270.945 C 373.774 268.134 373.758 263.748 371.196 261.698 C 369.817 260.591 367.935 260.401 366.4 261.21 C 365.312 261.783 364.46 262.827 364.015 264.06 C 363.8 260.733 365.253 257.188 367.776 255.188 C 370.535 252.999 374.491 252.557 377.853 254.059 C 381.01 255.469 383.662 258.468 385.128 262.283 C 386.457 265.748 386.824 269.799 386.185 273.998 C 386.172 274.085 386.188 274.163 386.233 274.234 C 386.279 274.306 386.341 274.348 386.417 274.362 C 386.495 274.377 386.565 274.361 386.627 274.31 C 386.692 274.259 386.73 274.19 386.743 274.105 C 387.399 269.784 387.02 265.61 385.646 262.034 C 384.122 258.066 381.358 254.945 378.061 253.471 C 374.526 251.892 370.361 252.363 367.448 254.673 C 364.347 257.132 362.767 261.794 363.693 265.759 C 363.709 265.833 363.746 265.894 363.803 265.937 C 363.861 265.982 363.923 266 363.993 265.993 C 364.062 265.986 364.12 265.955 364.168 265.899 C 364.217 265.844 364.243 265.778 364.247 265.699 C 364.348 264.058 365.31 262.482 366.641 261.781 C 367.972 261.08 369.67 261.251 370.867 262.211 C 373.167 264.055 373.158 268.04 371.705 270.606 C 370.107 273.427 367.192 275.015 364.83 276.087 C 364.305 276.324 363.763 276.558 363.24 276.783 C 361.05 277.73 358.785 278.707 356.888 280.335 C 354.642 282.266 352.719 285.737 353.486 289.141 C 354.211 292.357 357.358 294.714 360.645 294.505 C 364.135 294.286 366.682 291.623 369.145 289.049 C 369.751 288.415 370.325 287.814 370.913 287.25 C 373.158 285.096 375.476 282.872 378.138 281.331 C 381.066 279.635 384.099 279.05 386.683 279.685 C 389.686 280.421 392.158 283.012 392.689 285.985 C 393.446 290.204 390.522 294.325 387.287 296.537 C 382.696 299.678 376.942 300.485 371.507 298.748 C 366.74 297.227 361.282 295.832 356.815 298.567 C 353.451 300.625 351.032 305.868 352.942 310.102 C 354.31 313.131 357.622 315.053 361.804 315.244 C 362.085 315.257 362.363 315.262 362.641 315.262 C 369.182 315.262 374.811 311.79 378.437 308.807 C 379.477 307.953 380.49 306.951 381.471 305.982 C 384.653 302.836 387.944 299.584 392.647 300.81 C 396.341 301.772 398.99 306.334 398.552 310.978 C 398.164 315.091 395.559 319.075 391.752 321.376 C 388.658 323.245 384.838 324.156 380.072 324.156 L 380.014 324.156 C 371.623 324.143 361.476 320.518 356.189 317.117 C 356.068 317.039 355.947 316.958 355.824 316.876 C 355.495 316.657 355.156 316.43 354.807 316.254 C 354.762 316.23 354.717 316.222 354.668 316.226 C 354.619 316.23 354.574 316.249 354.533 316.278 C 354.493 316.308 354.46 316.348 354.439 316.396 C 354.416 316.444 354.405 316.496 354.407 316.551 C 354.443 317.835 354.595 319.135 354.741 320.391 C 354.794 320.846 354.848 321.3 354.895 321.753 C 355.013 322.888 355.131 324.025 355.246 325.165 C 355.724 329.867 356.218 334.729 356.985 339.443 C 357.122 340.291 357.276 341.114 357.639 341.862 C 357.896 342.394 358.409 342.944 359.002 342.744 C 359.262 342.656 359.446 342.442 359.594 342.244 C 360.304 341.285 360.601 340.141 360.888 339.037 C 360.98 338.685 361.074 338.32 361.182 337.97 C 361.665 336.38 362.016 334.734 362.356 333.142 C 362.725 331.412 363.108 329.624 363.656 327.925 C 364.073 326.631 364.554 325.988 365.172 325.902 C 365.838 325.81 366.367 326.31 366.786 327.436 C 367.594 329.617 368.06 331.98 368.509 334.264 C 369.031 336.922 369.573 339.673 370.661 342.18 C 371.01 342.98 371.763 344.384 372.92 344.786 C 373.502 344.991 374.097 344.905 374.687 344.534 C 376.485 343.403 377.187 341.022 377.807 338.921 C 377.901 338.601 377.992 338.291 378.085 337.992 C 378.775 335.788 379.375 333.517 379.869 331.245 C 379.919 331.012 379.965 330.725 380.017 330.397 C 380.227 329.053 380.545 327.022 381.667 326.966 C 382.775 326.905 383.122 328.351 383.384 329.831 L 383.39 329.859 C 383.563 330.826 383.711 331.831 383.853 332.803 C 384.34 336.097 384.843 339.505 386.396 342.473 C 386.879 343.399 387.402 343.825 387.944 343.74 C 389.196 343.54 390.015 340.632 390.651 337.814 C 390.689 337.638 390.722 337.492 390.749 337.382 C 391.143 335.744 391.458 334.061 391.763 332.434 C 391.929 331.55 392.1 330.634 392.281 329.739 C 392.339 329.463 392.393 329.176 392.449 328.886 C 392.782 327.178 393.156 325.24 393.981 323.835 C 394.226 323.418 394.481 323.298 394.562 323.327 C 394.625 323.349 394.716 323.539 394.706 323.977 C 394.683 325.095 394.515 326.221 394.353 327.309 C 394.322 327.512 394.292 327.715 394.263 327.918 C 393.994 329.771 393.723 331.76 393.41 334.177 C 393.19 335.874 392.972 337.601 392.764 339.27 C 392.47 341.601 392.167 344.006 391.852 346.373 C 390.378 347.228 388.984 347.764 387.595 348.004 C 377.755 349.718 367.421 349.326 357.706 346.873 C 357.631 346.855 357.561 346.869 357.494 346.915 C 357.429 346.962 357.387 347.028 357.371 347.112 C 357.353 347.197 357.365 347.278 357.407 347.35 C 357.449 347.424 357.507 347.471 357.584 347.49 C 363.366 348.951 369.369 349.685 375.356 349.685 Z M 375.356 349.685" fill-opacity="1" fill-rule="nonzero" style="fill-rule: nonzero; paint-order: fill; stroke-width: 2px; filter: none; fill: rgb(186, 218, 85); stroke: rgb(255, 255, 255);"/>
    <path d="M 369.798 346.779 C 373.932 346.783 378.041 346.431 382.123 345.724 C 383.616 345.463 385.107 344.884 386.685 343.951 C 386.769 343.9 386.818 343.824 386.832 343.719 C 387.155 341.298 387.465 338.836 387.765 336.453 C 387.976 334.784 388.191 333.057 388.412 331.362 C 388.725 328.948 388.996 326.963 389.263 325.114 C 389.292 324.911 389.321 324.709 389.352 324.506 C 389.518 323.397 389.69 322.249 389.714 321.085 C 389.734 320.153 389.383 319.892 389.172 319.817 C 388.783 319.681 388.303 319.982 387.951 320.583 C 387.068 322.086 386.68 324.084 386.34 325.846 C 386.283 326.135 386.228 326.417 386.172 326.693 C 385.99 327.594 385.817 328.512 385.652 329.398 C 385.349 331.017 385.036 332.691 384.645 334.312 C 384.617 334.424 384.584 334.575 384.542 334.754 C 383.753 338.263 383.001 340.098 382.307 340.208 C 381.942 340.266 381.57 339.717 381.326 339.247 C 379.826 336.381 379.332 333.032 378.853 329.795 C 378.71 328.818 378.561 327.808 378.386 326.829 L 378.382 326.802 C 378.167 325.594 377.767 323.34 376.084 323.429 C 374.509 323.507 374.143 325.839 373.901 327.38 C 373.851 327.699 373.808 327.975 373.762 328.191 C 373.272 330.441 372.677 332.691 371.994 334.877 C 371.898 335.18 371.806 335.494 371.712 335.817 C 371.125 337.807 370.458 340.065 368.852 341.076 C 368.397 341.363 367.964 341.428 367.53 341.277 C 366.543 340.932 365.86 339.568 365.612 338.997 C 364.553 336.559 364.02 333.846 363.504 331.222 C 363.048 328.91 362.578 326.521 361.75 324.286 C 361.228 322.884 360.484 322.236 359.544 322.369 C 358.426 322.524 357.879 323.834 357.566 324.806 C 357.006 326.539 356.62 328.343 356.247 330.089 C 355.91 331.666 355.562 333.3 355.088 334.862 C 354.978 335.224 354.88 335.595 354.788 335.954 C 354.503 337.046 354.235 338.076 353.6 338.934 C 353.502 339.066 353.395 339.193 353.281 339.233 C 353.031 339.316 352.742 338.992 352.579 338.654 C 352.255 337.989 352.112 337.22 351.983 336.422 C 351.22 331.73 350.726 326.88 350.25 322.189 C 350.133 321.048 350.016 319.91 349.898 318.773 C 349.85 318.318 349.797 317.861 349.744 317.402 C 349.619 316.338 349.491 315.242 349.436 314.162 C 349.618 314.273 349.799 314.394 349.977 314.514 C 350.102 314.598 350.225 314.679 350.348 314.759 C 355.7 318.202 365.965 321.868 374.454 321.881 L 374.514 321.881 C 379.375 321.881 383.284 320.947 386.463 319.027 C 390.431 316.628 393.15 312.456 393.557 308.139 C 394.022 303.188 391.178 298.321 387.217 297.289 C 382.23 295.989 378.829 299.351 375.539 302.603 C 374.568 303.562 373.562 304.556 372.546 305.392 C 368.837 308.441 363.008 312.01 356.269 311.706 C 352.294 311.525 349.162 309.733 347.889 306.912 C 346.123 303 348.39 298.134 351.529 296.213 C 355.809 293.595 361.135 294.963 365.794 296.449 C 371.381 298.235 377.298 297.403 382.025 294.171 C 383.851 292.923 385.422 291.224 386.448 289.391 C 387.634 287.274 388.062 285.05 387.685 282.954 C 387.1 279.692 384.512 276.961 381.245 276.16 C 377.77 275.308 374.473 276.615 372.32 277.863 C 369.601 279.438 367.256 281.689 364.988 283.864 C 364.391 284.437 363.786 285.07 363.201 285.683 C 360.811 288.179 358.339 290.762 355.054 290.968 C 352.026 291.158 349.136 289.011 348.476 286.081 C 347.772 282.954 349.575 279.735 351.676 277.931 C 353.505 276.358 355.732 275.397 357.886 274.468 C 358.411 274.239 358.955 274.006 359.484 273.766 C 361.924 272.66 364.942 271.011 366.625 268.039 C 368.216 265.228 368.2 260.842 365.638 258.792 C 364.259 257.685 362.377 257.495 360.842 258.304 C 359.754 258.877 358.902 259.921 358.457 261.154 C 358.242 257.827 359.695 254.282 362.218 252.282 C 364.977 250.093 368.933 249.651 372.295 251.153 C 375.452 252.563 378.104 255.562 379.57 259.377 C 380.899 262.842 381.266 266.893 380.627 271.092 C 380.614 271.179 380.63 271.257 380.675 271.328 C 380.721 271.4 380.783 271.442 380.859 271.456 C 380.937 271.471 381.007 271.455 381.069 271.404 C 381.134 271.353 381.172 271.284 381.185 271.199 C 381.841 266.878 381.462 262.704 380.088 259.128 C 378.564 255.16 375.8 252.039 372.503 250.565 C 368.968 248.986 364.803 249.457 361.89 251.767 C 358.789 254.226 357.209 258.888 358.135 262.853 C 358.151 262.927 358.188 262.988 358.245 263.031 C 358.303 263.076 358.365 263.094 358.435 263.087 C 358.504 263.08 358.562 263.049 358.61 262.993 C 358.659 262.938 358.685 262.872 358.689 262.793 C 358.79 261.152 359.752 259.576 361.083 258.875 C 362.414 258.174 364.112 258.345 365.309 259.305 C 367.609 261.149 367.6 265.134 366.147 267.7 C 364.549 270.521 361.634 272.109 359.272 273.181 C 358.747 273.418 358.205 273.652 357.682 273.877 C 355.492 274.824 353.227 275.801 351.33 277.429 C 349.084 279.36 347.161 282.831 347.928 286.235 C 348.653 289.451 351.8 291.808 355.087 291.599 C 358.577 291.38 361.124 288.717 363.587 286.143 C 364.193 285.509 364.767 284.908 365.355 284.344 C 367.6 282.19 369.918 279.966 372.58 278.425 C 375.508 276.729 378.541 276.144 381.125 276.779 C 384.128 277.515 386.6 280.106 387.131 283.079 C 387.888 287.298 384.964 291.419 381.729 293.631 C 377.138 296.772 371.384 297.579 365.949 295.842 C 361.182 294.321 355.724 292.926 351.257 295.661 C 347.893 297.719 345.474 302.962 347.384 307.196 C 348.752 310.225 352.064 312.147 356.246 312.338 C 356.527 312.351 356.805 312.356 357.083 312.356 C 363.624 312.356 369.253 308.884 372.879 305.901 C 373.919 305.047 374.932 304.045 375.913 303.076 C 379.095 299.93 382.386 296.678 387.089 297.904 C 390.783 298.866 393.432 303.428 392.994 308.072 C 392.606 312.185 390.001 316.169 386.194 318.47 C 383.1 320.339 379.28 321.25 374.514 321.25 L 374.456 321.25 C 366.065 321.237 355.918 317.612 350.631 314.211 C 350.51 314.133 350.389 314.052 350.266 313.97 C 349.937 313.751 349.598 313.524 349.249 313.348 C 349.204 313.324 349.159 313.316 349.11 313.32 C 349.061 313.324 349.016 313.343 348.975 313.372 C 348.935 313.402 348.902 313.442 348.881 313.49 C 348.858 313.538 348.847 313.59 348.849 313.645 C 348.885 314.929 349.037 316.229 349.183 317.485 C 349.236 317.94 349.29 318.394 349.337 318.847 C 349.455 319.982 349.573 321.119 349.688 322.259 C 350.166 326.961 350.66 331.823 351.427 336.537 C 351.564 337.385 351.718 338.208 352.081 338.956 C 352.338 339.488 352.851 340.038 353.444 339.838 C 353.704 339.75 353.888 339.536 354.036 339.338 C 354.746 338.379 355.043 337.235 355.33 336.131 C 355.422 335.779 355.516 335.414 355.624 335.064 C 356.107 333.474 356.458 331.828 356.798 330.236 C 357.167 328.506 357.55 326.718 358.098 325.019 C 358.515 323.725 358.996 323.082 359.614 322.996 C 360.28 322.904 360.809 323.404 361.228 324.53 C 362.036 326.711 362.502 329.074 362.951 331.358 C 363.473 334.016 364.015 336.767 365.103 339.274 C 365.452 340.074 366.205 341.478 367.362 341.88 C 367.944 342.085 368.539 341.999 369.129 341.628 C 370.927 340.497 371.629 338.116 372.249 336.015 C 372.343 335.695 372.434 335.385 372.527 335.086 C 373.217 332.882 373.817 330.611 374.311 328.339 C 374.361 328.106 374.407 327.819 374.459 327.491 C 374.669 326.147 374.987 324.116 376.109 324.06 C 377.217 323.999 377.564 325.445 377.826 326.925 L 377.832 326.953 C 378.005 327.92 378.153 328.925 378.295 329.897 C 378.782 333.191 379.285 336.599 380.838 339.567 C 381.321 340.493 381.844 340.919 382.386 340.834 C 383.638 340.634 384.457 337.726 385.093 334.908 C 385.131 334.732 385.164 334.586 385.191 334.476 C 385.585 332.838 385.9 331.155 386.205 329.528 C 386.371 328.644 386.542 327.728 386.723 326.833 C 386.781 326.557 386.835 326.27 386.891 325.98 C 387.224 324.272 387.598 322.334 388.423 320.929 C 388.668 320.512 388.923 320.392 389.004 320.421 C 389.067 320.443 389.158 320.633 389.148 321.071 C 389.125 322.189 388.957 323.315 388.795 324.403 C 388.764 324.606 388.734 324.809 388.705 325.012 C 388.436 326.865 388.165 328.854 387.852 331.271 C 387.632 332.968 387.414 334.695 387.206 336.364 C 386.912 338.695 386.609 341.1 386.294 343.467 C 384.82 344.322 383.426 344.858 382.037 345.098 C 372.197 346.812 361.863 346.42 352.148 343.967 C 352.073 343.949 352.003 343.963 351.936 344.009 C 351.871 344.056 351.829 344.122 351.813 344.206 C 351.795 344.291 351.807 344.372 351.849 344.444 C 351.891 344.518 351.949 344.565 352.026 344.584 C 357.808 346.045 363.811 346.779 369.798 346.779 Z M 369.798 346.779" fill-opacity="1" fill-rule="nonzero" style="fill-rule: nonzero; paint-order: fill; stroke-width: 2px; filter: none; fill: none; stroke: rgba(100, 58, 21, 0.525);"/>
  </g>
</svg>