<?xml version="1.0" encoding="utf-8"?>
<svg viewBox="0 5.187 315.001 119.381" xmlns="http://www.w3.org/2000/svg" xmlns:bx="https://boxy-svg.com">
  <defs>
    <filter id="filter-1" color-interpolation-filters="sRGB" x="-50%" y="-50%" width="200%" height="200%" bx:preset="drop-shadow 1 5 5 1 0.51 #8344444d">
      <feGaussianBlur in="SourceAlpha" stdDeviation="1"/>
      <feOffset dx="5" dy="5"/>
      <feComponentTransfer result="offsetblur">
        <feFuncA id="feFuncA-1" type="linear" slope="1.02"/>
      </feComponentTransfer>
      <feFlood flood-color="#8344444d"/>
      <feComposite in2="offsetblur" operator="in"/>
      <feMerge>
        <feMergeNode/>
        <feMergeNode in="SourceGraphic"/>
      </feMerge>
    </filter>
  </defs>
  <g transform="matrix(1, 0, 0, 1, -317.20505, -98.590821)">
    <path d="M 353.173 208.456 C 357.307 208.46 361.416 208.108 365.498 207.401 C 366.991 207.14 368.482 206.561 370.06 205.628 C 370.144 205.577 370.193 205.501 370.207 205.396 C 370.53 202.975 370.84 200.513 371.14 198.13 C 371.351 196.461 371.566 194.734 371.787 193.039 C 372.1 190.625 372.371 188.64 372.638 186.791 C 372.667 186.588 372.696 186.386 372.727 186.183 C 372.893 185.074 373.065 183.926 373.089 182.762 C 373.109 181.83 372.758 181.569 372.547 181.494 C 372.158 181.358 371.678 181.659 371.326 182.26 C 370.443 183.763 370.055 185.761 369.715 187.523 C 369.658 187.812 369.603 188.094 369.547 188.37 C 369.365 189.271 369.192 190.189 369.027 191.075 C 368.724 192.694 368.411 194.368 368.02 195.989 C 367.992 196.101 367.959 196.252 367.917 196.431 C 367.128 199.94 366.376 201.775 365.682 201.885 C 365.317 201.943 364.945 201.394 364.701 200.924 C 363.201 198.058 362.707 194.709 362.228 191.472 C 362.085 190.495 361.936 189.485 361.761 188.506 L 361.757 188.479 C 361.542 187.271 361.142 185.017 359.459 185.106 C 357.884 185.184 357.518 187.516 357.276 189.057 C 357.226 189.376 357.183 189.652 357.137 189.868 C 356.647 192.118 356.052 194.368 355.369 196.554 C 355.273 196.857 355.181 197.171 355.087 197.494 C 354.5 199.484 353.833 201.742 352.227 202.753 C 351.772 203.04 351.339 203.105 350.905 202.954 C 349.918 202.609 349.235 201.245 348.987 200.674 C 347.928 198.236 347.395 195.523 346.879 192.899 C 346.423 190.587 345.953 188.198 345.125 185.963 C 344.603 184.561 343.859 183.913 342.919 184.046 C 341.801 184.201 341.254 185.511 340.941 186.483 C 340.381 188.216 339.995 190.02 339.622 191.766 C 339.285 193.343 338.937 194.977 338.463 196.539 C 338.353 196.901 338.255 197.272 338.163 197.631 C 337.878 198.723 337.61 199.753 336.975 200.611 C 336.877 200.743 336.77 200.87 336.656 200.91 C 336.406 200.993 336.117 200.669 335.954 200.331 C 335.63 199.666 335.487 198.897 335.358 198.099 C 334.595 193.407 334.101 188.557 333.625 183.866 C 333.508 182.725 333.391 181.587 333.273 180.45 C 333.225 179.995 333.172 179.538 333.119 179.079 C 332.994 178.015 332.866 176.919 332.811 175.839 C 332.993 175.95 333.174 176.071 333.352 176.191 C 333.477 176.275 333.6 176.356 333.723 176.436 C 339.075 179.879 349.34 183.545 357.829 183.558 L 357.889 183.558 C 362.75 183.558 366.659 182.624 369.838 180.704 C 373.806 178.305 376.525 174.133 376.932 169.816 C 377.397 164.865 374.553 159.998 370.592 158.966 C 365.605 157.666 362.204 161.028 358.914 164.28 C 357.943 165.239 356.937 166.233 355.921 167.069 C 352.212 170.118 346.383 173.687 339.644 173.383 C 335.669 173.202 332.537 171.41 331.264 168.589 C 329.498 164.677 331.765 159.811 334.904 157.89 C 339.184 155.272 344.51 156.64 349.169 158.126 C 354.756 159.912 360.673 159.08 365.4 155.848 C 367.226 154.6 368.797 152.901 369.823 151.068 C 371.009 148.951 371.437 146.727 371.06 144.631 C 370.475 141.369 367.887 138.638 364.62 137.837 C 361.145 136.985 357.848 138.292 355.695 139.54 C 352.976 141.115 350.631 143.366 348.363 145.541 C 347.766 146.114 347.161 146.747 346.576 147.36 C 344.186 149.856 341.714 152.439 338.429 152.645 C 335.401 152.835 332.511 150.688 331.851 147.758 C 331.147 144.631 332.95 141.412 335.051 139.608 C 336.88 138.035 339.107 137.074 341.261 136.145 C 341.786 135.916 342.33 135.683 342.859 135.443 C 345.299 134.337 348.317 132.688 350 129.716 C 351.591 126.905 351.575 122.519 349.013 120.469 C 347.634 119.362 345.752 119.172 344.217 119.981 C 343.129 120.554 342.277 121.598 341.832 122.831 C 341.617 119.504 343.07 115.959 345.593 113.959 C 348.352 111.77 352.308 111.328 355.67 112.83 C 358.827 114.24 361.479 117.239 362.945 121.054 C 364.274 124.519 364.641 128.57 364.002 132.769 C 363.989 132.856 364.005 132.934 364.05 133.005 C 364.096 133.077 364.158 133.119 364.234 133.133 C 364.312 133.148 364.382 133.132 364.444 133.081 C 364.509 133.03 364.547 132.961 364.56 132.876 C 365.216 128.555 364.837 124.381 363.463 120.805 C 361.939 116.837 359.175 113.716 355.878 112.242 C 352.343 110.663 348.178 111.134 345.265 113.444 C 342.164 115.903 340.584 120.565 341.51 124.53 C 341.526 124.604 341.563 124.665 341.62 124.708 C 341.678 124.753 341.74 124.771 341.81 124.764 C 341.879 124.757 341.937 124.726 341.985 124.67 C 342.034 124.615 342.06 124.549 342.064 124.47 C 342.165 122.829 343.127 121.253 344.458 120.552 C 345.789 119.851 347.487 120.022 348.684 120.982 C 350.984 122.826 350.975 126.811 349.522 129.377 C 347.924 132.198 345.009 133.786 342.647 134.858 C 342.122 135.095 341.58 135.329 341.057 135.554 C 338.867 136.501 336.602 137.478 334.705 139.106 C 332.459 141.037 330.536 144.508 331.303 147.912 C 332.028 151.128 335.175 153.485 338.462 153.276 C 341.952 153.057 344.499 150.394 346.962 147.82 C 347.568 147.186 348.142 146.585 348.73 146.021 C 350.975 143.867 353.293 141.643 355.955 140.102 C 358.883 138.406 361.916 137.821 364.5 138.456 C 367.503 139.192 369.975 141.783 370.506 144.756 C 371.263 148.975 368.339 153.096 365.104 155.308 C 360.513 158.449 354.759 159.256 349.324 157.519 C 344.557 155.998 339.099 154.603 334.632 157.338 C 331.268 159.396 328.849 164.639 330.759 168.873 C 332.127 171.902 335.439 173.824 339.621 174.015 C 339.902 174.028 340.18 174.033 340.458 174.033 C 346.999 174.033 352.628 170.561 356.254 167.578 C 357.294 166.724 358.307 165.722 359.288 164.753 C 362.47 161.607 365.761 158.355 370.464 159.581 C 374.158 160.543 376.807 165.105 376.369 169.749 C 375.981 173.862 373.376 177.846 369.569 180.147 C 366.475 182.016 362.655 182.927 357.889 182.927 L 357.831 182.927 C 349.44 182.914 339.293 179.289 334.006 175.888 C 333.885 175.81 333.764 175.729 333.641 175.647 C 333.312 175.428 332.973 175.201 332.624 175.025 C 332.579 175.001 332.534 174.993 332.485 174.997 C 332.436 175.001 332.391 175.02 332.35 175.049 C 332.31 175.079 332.277 175.119 332.256 175.167 C 332.233 175.215 332.222 175.267 332.224 175.322 C 332.26 176.606 332.412 177.906 332.558 179.162 C 332.611 179.617 332.665 180.071 332.712 180.524 C 332.83 181.659 332.948 182.796 333.063 183.936 C 333.541 188.638 334.035 193.5 334.802 198.214 C 334.939 199.062 335.093 199.885 335.456 200.633 C 335.713 201.165 336.226 201.715 336.819 201.515 C 337.079 201.427 337.263 201.213 337.411 201.015 C 338.121 200.056 338.418 198.912 338.705 197.808 C 338.797 197.456 338.891 197.091 338.999 196.741 C 339.482 195.151 339.833 193.505 340.173 191.913 C 340.542 190.183 340.925 188.395 341.473 186.696 C 341.89 185.402 342.371 184.759 342.989 184.673 C 343.655 184.581 344.184 185.081 344.603 186.207 C 345.411 188.388 345.877 190.751 346.326 193.035 C 346.848 195.693 347.39 198.444 348.478 200.951 C 348.827 201.751 349.58 203.155 350.737 203.557 C 351.319 203.762 351.914 203.676 352.504 203.305 C 354.302 202.174 355.004 199.793 355.624 197.692 C 355.718 197.372 355.809 197.062 355.902 196.763 C 356.592 194.559 357.192 192.288 357.686 190.016 C 357.736 189.783 357.782 189.496 357.834 189.168 C 358.044 187.824 358.362 185.793 359.484 185.737 C 360.592 185.676 360.939 187.122 361.201 188.602 L 361.207 188.63 C 361.38 189.597 361.528 190.602 361.67 191.574 C 362.157 194.868 362.66 198.276 364.213 201.244 C 364.696 202.17 365.219 202.596 365.761 202.511 C 367.013 202.311 367.832 199.403 368.468 196.585 C 368.506 196.409 368.539 196.263 368.566 196.153 C 368.96 194.515 369.275 192.832 369.58 191.205 C 369.746 190.321 369.917 189.405 370.098 188.51 C 370.156 188.234 370.21 187.947 370.266 187.657 C 370.599 185.949 370.973 184.011 371.798 182.606 C 372.043 182.189 372.298 182.069 372.379 182.098 C 372.442 182.12 372.533 182.31 372.523 182.748 C 372.5 183.866 372.332 184.992 372.17 186.08 C 372.139 186.283 372.109 186.486 372.08 186.689 C 371.811 188.542 371.54 190.531 371.227 192.948 C 371.007 194.645 370.789 196.372 370.581 198.041 C 370.287 200.372 369.984 202.777 369.669 205.144 C 368.195 205.999 366.801 206.535 365.412 206.775 C 355.572 208.489 345.238 208.097 335.523 205.644 C 335.448 205.626 335.378 205.64 335.311 205.686 C 335.246 205.733 335.204 205.799 335.188 205.883 C 335.17 205.968 335.182 206.049 335.224 206.121 C 335.266 206.195 335.324 206.242 335.401 206.261 C 341.183 207.722 347.186 208.456 353.173 208.456 Z M 353.173 208.456" fill-opacity="1" fill-rule="nonzero" style="fill: rgb(100, 58, 21); fill-rule: nonzero; paint-order: fill; stroke: rgb(100, 58, 21); stroke-width: 2px; filter: url('#filter-1');"/>
    <g transform="matrix(1, 0, 0, 1, 0, 3.904742)">
      <path d="M 509.544 67.925 C 509.794 65.984 509.653 64.64 509.157 63.972 C 509.087 63.867 509.017 63.792 508.981 63.757 C 508.946 63.722 508.946 63.722 508.911 63.722 C 508.876 63.722 508.806 63.792 508.735 63.937 C 508.661 64.077 508.626 64.324 508.626 64.675 C 508.626 65.417 508.696 66.054 508.876 66.585 C 509.052 67.113 509.298 67.574 509.544 67.925 Z M 514.278 65.667 L 514.278 66.089 C 514.173 69.374 513.075 70.785 510.923 70.257 C 510.842 70.24 510.76 70.217 510.678 70.189 C 511.565 71.699 512.252 73.087 512.724 74.388 C 513.36 76.044 513.747 77.494 513.923 78.763 C 514.102 80.072 514.208 81.165 514.208 82.119 C 514.208 83.708 513.923 85.263 513.325 86.744 C 513.04 87.521 512.653 88.087 512.157 88.474 C 515.829 89.427 518.552 90.134 520.352 90.63 C 520.528 90.665 520.704 90.771 520.809 90.911 C 520.915 91.087 520.985 91.228 520.985 91.408 C 520.985 91.583 520.915 91.689 520.809 91.794 C 520.704 91.9 520.528 91.9 520.352 91.865 C 518.372 91.337 515.302 90.56 511.099 89.462 C 511.019 89.442 510.939 89.421 510.859 89.401 C 513.128 92.972 514.278 95.98 514.278 98.398 C 514.278 98.785 514.243 99.137 514.173 99.492 C 513.958 100.656 513.536 101.398 512.899 101.715 C 512.302 102.035 511.665 102.176 510.958 102.106 C 511.169 102.281 511.38 102.422 511.595 102.563 C 512.407 103.129 513.04 103.695 513.571 104.293 C 514.102 104.895 514.349 105.457 514.349 106.059 C 514.349 107.012 513.712 107.543 512.477 107.613 C 511.822 107.641 511.121 107.487 510.374 107.184 C 512.92 111.238 514.208 115.052 514.208 118.63 C 514.208 120.607 513.747 121.876 512.794 122.478 C 512.052 122.939 511.099 122.974 509.899 122.548 C 508.52 122.021 507.602 121.173 507.075 119.935 C 506.72 118.982 506.755 118.239 507.216 117.712 C 507.638 117.251 508.239 117.181 509.017 117.462 C 509.192 117.536 509.333 117.642 509.438 117.782 C 509.544 117.958 509.579 118.099 509.579 118.275 C 509.544 118.454 509.474 118.595 509.333 118.665 C 509.227 118.736 509.052 118.736 508.876 118.665 C 508.556 118.56 508.345 118.56 508.239 118.7 C 508.063 118.946 508.028 119.263 508.204 119.724 C 508.52 120.466 509.122 120.993 510.04 121.349 C 510.852 121.63 511.524 121.63 511.981 121.349 C 512.653 120.888 512.97 119.864 512.97 118.275 C 512.97 114.638 511.559 110.79 508.735 106.693 C 508.626 106.517 508.556 106.376 508.591 106.2 C 508.598 106.166 508.606 106.134 508.615 106.105 C 508.266 105.778 507.974 105.407 507.743 105 C 507.497 104.613 507.392 104.117 507.392 103.516 C 507.392 102.953 507.673 102.352 508.239 101.68 C 508.063 101.574 507.923 101.469 507.778 101.363 C 507.602 101.258 507.497 101.117 507.427 100.938 C 507.356 100.762 507.356 100.621 507.427 100.445 C 507.462 100.305 507.567 100.234 507.708 100.199 C 507.852 100.164 508.134 100.234 508.591 100.375 C 509.759 100.762 510.747 100.902 511.489 100.797 C 512.263 100.691 512.759 100.09 512.934 98.961 C 513.323 96.533 512.097 93.234 509.227 88.986 C 502.606 87.297 495.243 85.373 487.087 83.212 C 486.911 83.142 486.77 83.036 486.665 82.896 C 486.559 82.755 486.489 82.579 486.489 82.404 C 486.489 82.224 486.559 82.119 486.665 82.013 C 486.77 81.908 486.911 81.908 487.087 81.943 C 494.36 83.884 501.036 85.65 507.11 87.204 C 506.298 86.181 505.626 84.837 505.059 83.212 C 504.532 81.556 504.392 79.79 504.708 77.99 C 504.743 77.81 504.813 77.704 504.954 77.634 C 505.095 77.599 505.239 77.599 505.415 77.669 C 505.591 77.775 505.731 77.88 505.837 78.06 C 505.942 78.236 505.977 78.376 505.942 78.552 C 505.696 80.072 505.767 81.556 506.227 83.001 C 506.684 84.486 507.286 85.685 508.063 86.603 C 508.274 86.853 508.556 87.134 508.876 87.38 C 509.227 87.661 509.614 87.806 510.04 87.841 C 511.063 87.771 511.806 87.099 512.263 85.861 C 512.724 84.626 512.97 83.286 512.97 81.767 C 512.97 80.814 512.864 79.755 512.688 78.517 C 512.513 77.318 512.157 75.974 511.559 74.458 C 510.958 72.939 510.075 71.279 508.911 69.408 C 508.806 69.232 508.77 69.056 508.806 68.876 C 508.812 68.853 508.818 68.831 508.826 68.81 C 508.505 68.419 508.209 67.945 507.958 67.398 C 507.567 66.585 507.392 65.558 507.392 64.359 C 507.392 63.265 507.708 62.628 508.38 62.452 C 508.841 62.347 509.298 62.523 509.759 62.984 C 510.216 63.441 510.536 64.148 510.747 65.136 C 510.993 66.16 510.958 67.433 510.712 68.949 L 510.923 69.019 C 511.735 69.199 512.302 68.913 512.583 68.171 C 512.899 67.468 513.04 66.656 513.04 65.738 C 513.184 61.57 511.841 56.839 509.052 51.577 C 508.946 51.402 508.946 51.257 508.981 51.081 C 509.017 50.941 509.122 50.835 509.263 50.8 C 509.438 50.765 509.579 50.765 509.724 50.835 C 509.899 50.941 510.005 51.046 510.11 51.222 C 512.899 56.343 514.278 61.183 514.278 65.667 Z M 508.626 104.012 C 508.626 104.223 508.696 104.434 508.806 104.648 C 509.122 105.141 509.579 105.531 510.251 105.848 C 510.923 106.164 511.559 106.34 512.157 106.34 C 512.337 106.34 512.548 106.305 512.759 106.199 C 512.97 106.129 513.075 105.988 513.075 105.742 C 513.075 105.352 512.688 104.824 511.911 104.223 C 511.169 103.621 510.321 103.023 509.438 102.457 C 509.263 102.668 509.052 102.918 508.876 103.164 C 508.696 103.41 508.626 103.695 508.626 104.012 Z M 487.688 146.878 C 489.665 147.405 491.501 147.901 493.196 148.358 L 493.196 130.737 C 493.196 130.561 493.267 130.456 493.372 130.35 C 493.477 130.245 493.657 130.245 493.833 130.28 C 494.009 130.315 494.149 130.421 494.255 130.561 C 494.395 130.737 494.466 130.917 494.466 131.093 L 494.466 148.714 C 499.692 150.159 503.72 151.182 506.544 151.784 C 509.474 152.386 511.345 152.386 512.227 151.749 C 512.759 151.397 513.005 150.655 513.005 149.491 C 513.005 148.429 512.794 147.37 512.372 146.311 C 511.946 145.288 511.454 144.3 510.852 143.382 C 510.286 142.464 509.759 141.651 509.227 140.909 L 509.227 140.874 C 509.052 140.628 508.876 140.413 508.735 140.202 C 508.626 140.026 508.556 139.886 508.591 139.71 C 508.626 139.53 508.696 139.425 508.806 139.354 C 508.946 139.284 509.087 139.284 509.263 139.319 C 509.438 139.389 509.579 139.495 509.688 139.671 C 509.829 139.85 509.97 140.061 510.145 140.272 C 510.145 140.307 510.145 140.307 510.181 140.343 C 510.712 141.085 511.274 141.932 511.911 142.956 C 512.548 143.979 513.11 145.077 513.571 146.241 C 514.028 147.405 514.278 148.608 514.278 149.807 C 514.278 151.327 513.888 152.35 513.11 152.878 C 512.545 153.302 511.668 153.518 510.473 153.52 C 513.019 158.39 514.278 163.001 514.278 167.287 L 514.278 167.709 C 514.173 170.994 513.075 172.404 510.923 171.877 C 510.868 171.865 510.812 171.851 510.756 171.834 C 513.112 176.5 514.278 180.924 514.278 185.047 L 514.278 185.469 C 514.173 188.754 513.075 190.164 510.923 189.637 C 510.706 189.591 510.482 189.503 510.255 189.381 C 510.482 190.262 510.659 191.167 510.782 192.105 C 510.958 193.449 511.063 194.683 511.063 195.777 C 511.063 196.308 511.063 196.801 511.028 197.262 C 510.923 198.426 510.677 199.273 510.321 199.84 C 510.11 200.191 509.899 200.441 509.653 200.652 C 512.477 201.676 513.993 203.125 514.243 204.926 C 514.278 205.031 514.278 205.137 514.278 205.242 C 514.278 206.055 513.923 206.762 513.255 207.394 C 512.583 207.926 511.806 208.277 510.958 208.422 C 511.595 208.879 512.122 209.41 512.583 209.972 C 513.677 211.387 514.243 212.621 514.243 213.644 C 514.243 214.316 513.993 214.847 513.536 215.164 C 512.618 215.765 510.782 215.625 507.993 214.707 C 507.813 214.633 507.638 214.527 507.532 214.351 C 507.427 214.211 507.392 214.07 507.392 213.894 C 507.427 213.715 507.497 213.574 507.602 213.504 C 507.708 213.433 507.888 213.433 508.063 213.469 C 509.544 213.93 510.642 214.176 511.309 214.211 C 512.017 214.246 512.477 214.176 512.688 214 C 512.899 213.894 513.005 213.644 513.005 213.293 C 513.005 212.656 512.583 211.773 511.735 210.68 C 510.888 209.586 509.653 208.773 508.028 208.242 C 507.813 208.172 507.638 208.066 507.532 207.926 C 507.427 207.785 507.392 207.609 507.392 207.43 C 507.392 207.254 507.462 207.148 507.567 207.043 C 507.673 206.972 507.852 206.937 508.028 206.972 C 509.017 207.219 509.864 207.254 510.606 207.078 C 511.345 206.902 511.911 206.656 512.302 206.301 C 512.829 205.844 513.075 205.312 513.005 204.746 C 512.829 203.898 512.263 203.195 511.239 202.629 C 510.216 202.097 509.157 201.676 508.028 201.394 C 507.852 201.359 507.673 201.25 507.567 201.074 C 507.462 200.969 507.392 200.793 507.356 200.582 C 507.321 200.476 507.356 200.332 507.427 200.191 C 507.532 200.086 507.638 200.015 507.813 199.98 C 507.993 199.98 508.204 199.91 508.485 199.769 C 508.77 199.629 509.017 199.308 509.263 198.851 C 509.509 198.39 509.688 197.719 509.794 196.836 C 509.864 195.883 509.829 194.648 509.688 193.058 C 509.579 191.469 509.263 189.918 508.77 188.398 C 508.75 188.295 508.741 188.193 508.752 188.097 C 508.459 187.724 508.189 187.282 507.958 186.778 C 507.567 185.965 507.392 184.938 507.392 183.739 C 507.392 182.645 507.708 182.008 508.38 181.832 C 508.841 181.727 509.298 181.903 509.759 182.364 C 510.216 182.821 510.536 183.528 510.747 184.516 C 510.993 185.539 510.958 186.813 510.712 188.328 L 510.923 188.399 C 511.735 188.578 512.302 188.293 512.583 187.551 C 512.899 186.848 513.04 186.035 513.04 185.117 C 513.184 180.949 511.841 176.219 509.052 170.957 C 508.973 170.826 508.953 170.712 508.962 170.59 C 508.589 170.17 508.244 169.64 507.958 169.017 C 507.567 168.205 507.392 167.177 507.392 165.978 C 507.392 164.884 507.708 164.248 508.38 164.072 C 508.841 163.966 509.298 164.142 509.759 164.603 C 510.216 165.06 510.536 165.767 510.747 166.755 C 510.993 167.779 510.958 169.052 510.712 170.568 L 510.923 170.638 C 511.735 170.818 512.302 170.533 512.583 169.791 C 512.899 169.087 513.04 168.275 513.04 167.357 C 513.182 163.257 511.884 158.612 509.186 153.452 C 508.598 153.394 507.953 153.298 507.251 153.163 C 504.427 152.597 500.153 151.538 494.466 149.948 L 494.466 159.198 C 494.466 159.378 494.395 159.483 494.255 159.554 C 494.149 159.659 494.009 159.694 493.833 159.659 C 493.657 159.589 493.477 159.483 493.372 159.343 C 493.267 159.198 493.196 159.022 493.196 158.847 L 493.196 149.597 C 491.501 149.136 489.665 148.643 487.688 148.112 C 487.513 148.077 487.368 147.972 487.263 147.796 C 487.157 147.651 487.087 147.511 487.087 147.335 C 487.087 147.159 487.157 147.018 487.263 146.913 C 487.368 146.843 487.513 146.843 487.688 146.878 Z M 509.544 169.544 C 509.794 167.603 509.653 166.259 509.157 165.591 C 509.087 165.486 509.017 165.412 508.981 165.377 C 508.946 165.341 508.946 165.341 508.911 165.341 C 508.876 165.341 508.806 165.412 508.735 165.556 C 508.661 165.697 508.626 165.943 508.626 166.294 C 508.626 167.037 508.696 167.673 508.876 168.205 C 509.052 168.732 509.298 169.193 509.544 169.544 Z M 509.544 187.305 C 509.794 185.364 509.653 184.02 509.157 183.352 C 509.087 183.246 509.017 183.172 508.981 183.137 C 508.946 183.102 508.946 183.102 508.911 183.102 C 508.876 183.102 508.806 183.172 508.735 183.317 C 508.661 183.457 508.626 183.703 508.626 184.055 C 508.626 184.797 508.696 185.434 508.876 185.965 C 509.052 186.492 509.298 186.953 509.544 187.305 Z M 528.259 242.706 C 528.188 248.991 525.895 252.698 521.376 253.862 C 519.079 254.323 516.677 254.038 514.173 252.979 C 511.7 251.956 509.579 250.331 507.813 248.143 C 504.321 243.518 504.001 238.608 506.825 233.417 C 506.895 233.311 507.005 233.241 507.181 233.206 C 507.356 233.206 507.497 233.276 507.673 233.382 C 507.813 233.487 507.923 233.628 507.958 233.807 C 508.028 233.983 508.028 234.159 507.958 234.3 C 505.38 238.999 505.626 243.374 508.696 247.507 C 510.286 249.448 512.157 250.897 514.384 251.815 C 516.606 252.768 518.763 253.014 520.845 252.592 C 525.684 251.284 527.661 246.729 526.778 238.925 C 526.247 235.428 525.259 232.569 523.809 230.346 C 522.364 228.12 520.915 226.425 519.395 225.26 C 515.337 222.081 511.419 220.741 507.638 221.202 C 505.485 221.589 503.79 222.401 502.626 223.635 C 501.458 224.874 500.61 226.354 500.048 228.014 C 499.481 229.675 499.024 231.405 498.669 233.135 C 498.282 235.428 497.645 237.374 496.798 238.999 C 495.95 240.62 494.466 241.362 492.313 241.257 C 490.337 241.01 488.536 239.952 486.911 238.042 C 484.759 235.393 483.841 232.428 484.087 229.178 C 484.403 226.389 485.427 224.909 487.227 224.694 C 489.099 224.589 491.044 225.757 493.056 228.26 C 493.161 228.44 493.231 228.616 493.231 228.757 C 493.231 228.932 493.161 229.038 493.056 229.143 C 492.95 229.253 492.809 229.253 492.63 229.217 C 492.454 229.178 492.313 229.073 492.173 228.932 C 490.548 226.921 489.028 225.932 487.653 225.967 C 486.345 226.143 485.567 227.342 485.321 229.639 C 485.11 232.499 485.923 235.077 487.759 237.374 C 489.063 238.889 490.513 239.772 492.102 239.952 C 493.833 240.057 495.067 239.421 495.774 238.007 C 496.481 236.596 497.044 234.76 497.47 232.534 C 497.786 230.803 498.282 229.038 498.88 227.272 C 499.481 225.507 500.434 223.956 501.708 222.612 C 502.977 221.272 504.778 220.354 507.145 219.893 C 511.309 219.362 515.583 220.846 519.997 224.342 C 521.657 225.612 523.247 227.452 524.802 229.85 C 526.388 232.288 527.45 235.358 528.013 239.069 C 528.188 240.339 528.259 241.538 528.259 242.706 Z" fill-opacity="1" style="fill: rgb(100, 58, 21); transform-box: fill-box; transform-origin: 50% 50%;" transform="matrix(0, 0.999999, -1.000001, 0, -0.000035, 0.000008)"/>
      <path d="M 554.924 181.643 L 553.529 181.643 L 550.443 177.69 L 549.701 177.69 L 549.701 181.643 L 548.615 181.643 L 548.615 173.088 L 549.701 173.088 L 549.701 176.706 L 550.443 176.706 L 553.408 173.088 L 554.744 173.088 L 551.385 177.167 L 554.924 181.643 Z M 559.906 174.081 L 559.906 176.881 L 562.969 176.881 L 562.969 177.858 L 559.906 177.858 L 559.906 180.655 L 563.383 180.655 L 563.383 181.643 L 558.797 181.643 L 558.797 173.088 L 563.383 173.088 L 563.383 174.081 L 559.906 174.081 Z M 572.296 181.643 L 570.371 178.319 L 568.753 178.319 L 568.753 181.643 L 567.667 181.643 L 567.667 173.088 L 570.296 173.088 C 571.257 173.088 571.96 173.252 572.46 173.6 C 573.074 173.995 573.378 174.651 573.378 175.573 C 573.378 176.499 573.089 177.233 572.507 177.682 C 572.222 177.924 571.871 178.1 571.433 178.206 L 573.566 181.643 L 572.296 181.643 Z M 568.753 177.374 L 570.156 177.374 C 570.921 177.374 571.48 177.256 571.828 176.905 C 572.109 176.631 572.265 176.225 572.265 175.616 C 572.265 175.034 572.093 174.643 571.808 174.409 C 571.445 174.112 570.906 174.03 570.156 174.03 L 568.753 174.03 L 568.753 177.374 Z M 579.533 177.573 L 576.712 173.088 L 577.951 173.088 L 580.08 176.585 L 582.205 173.088 L 583.439 173.088 L 580.623 177.561 L 580.623 181.643 L 579.533 181.643 L 579.533 177.573 Z M 542.835 179.596 L 538.967 179.596 L 538.237 181.643 L 537.1 181.643 L 540.253 173.088 L 541.553 173.088 L 544.706 181.643 L 543.573 181.643 L 542.835 179.596 Z M 542.495 178.635 L 540.905 174.182 L 539.311 178.635 L 542.495 178.635 Z M 533.857 179.323 C 533.857 180.682 532.916 181.643 531.439 181.643 L 528.111 181.643 L 528.111 173.088 L 530.705 173.088 C 532.228 173.088 533.232 174.018 533.232 175.354 C 533.232 176.174 532.853 176.85 532.17 177.178 C 533.178 177.432 533.857 178.143 533.857 179.323 Z M 530.697 174.045 L 529.162 174.045 L 529.162 176.838 L 530.9 176.838 C 531.682 176.838 532.209 176.202 532.209 175.424 C 532.209 174.643 531.646 174.045 530.697 174.045 Z M 532.799 179.213 C 532.799 178.381 532.205 177.737 531.178 177.737 L 529.162 177.737 L 529.162 180.678 L 531.256 180.678 C 532.236 180.678 532.799 180.002 532.799 179.213 Z M 514.917 174.081 L 514.917 176.881 L 517.979 176.881 L 517.979 177.858 L 514.917 177.858 L 514.917 180.655 L 518.393 180.655 L 518.393 181.643 L 513.807 181.643 L 513.807 173.088 L 518.393 173.088 L 518.393 174.081 L 514.917 174.081 Z M 502.787 173.088 L 505.545 173.088 C 508.154 173.088 509.494 174.862 509.494 177.362 C 509.494 179.87 508.154 181.643 505.545 181.643 L 502.787 181.643 L 502.787 173.088 Z M 505.506 180.655 C 507.44 180.655 508.361 179.358 508.361 177.362 C 508.361 175.381 507.44 174.081 505.506 174.081 L 503.873 174.081 L 503.873 180.655 L 505.506 180.655 Z M 497.007 179.596 L 493.14 179.596 L 492.409 181.643 L 491.272 181.643 L 494.425 173.088 L 495.726 173.088 L 498.878 181.643 L 497.745 181.643 L 497.007 179.596 Z M 496.667 178.635 L 495.077 174.182 L 493.483 178.635 L 496.667 178.635 Z M 486.634 181.643 L 486.064 174.585 L 483.33 181.643 L 482.677 181.643 L 479.963 174.608 L 479.384 181.643 L 478.322 181.643 L 478.974 173.088 L 480.408 173.088 L 483.002 179.76 L 485.599 173.088 L 487.045 173.088 L 487.689 181.643 L 486.634 181.643 Z M 467.626 173.088 L 470.384 173.088 C 472.993 173.088 474.333 174.862 474.333 177.362 C 474.333 179.87 472.993 181.643 470.384 181.643 L 467.626 181.643 L 467.626 173.088 Z M 470.345 180.655 C 472.279 180.655 473.2 179.358 473.2 177.362 C 473.2 175.381 472.279 174.081 470.345 174.081 L 468.712 174.081 L 468.712 180.655 L 470.345 180.655 Z M 462.742 173.088 L 462.742 181.643 L 461.594 181.643 L 456.98 174.725 L 456.98 181.643 L 455.914 181.643 L 455.914 173.088 L 457.051 173.088 L 461.66 179.979 L 461.66 173.088 L 462.742 173.088 Z M 450.134 179.596 L 446.266 179.596 L 445.536 181.643 L 444.399 181.643 L 447.552 173.088 L 448.852 173.088 L 452.005 181.643 L 450.872 181.643 L 450.134 179.596 Z M 449.794 178.635 L 448.204 174.182 L 446.61 178.635 L 449.794 178.635 Z M 433.983 173.088 L 435.077 173.088 L 435.077 176.87 L 439.405 176.87 L 439.405 173.088 L 440.495 173.088 L 440.495 181.643 L 439.405 181.643 L 439.405 177.846 L 435.077 177.846 L 435.077 181.643 L 433.983 181.643 L 433.983 173.088 Z" fill-opacity="1" style="fill: rgb(100, 58, 21);"/>
    </g>
  </g>
</svg>