<?xml version="1.0" encoding="utf-8"?>
<svg width="500" zoomAndPan="magnify" viewBox="95.281 60.536 185.077 248.599" height="500" preserveAspectRatio="xMidYMid meet" version="1.0" xmlns="http://www.w3.org/2000/svg" xmlns:bx="https://boxy-svg.com">
  <defs>
    <g/>
  </defs>
  <g>
    <path d="M 210.418 276.152 C 220.375 276.16 230.273 275.402 240.109 273.879 C 243.703 273.316 247.297 272.07 251.098 270.059 C 251.301 269.949 251.418 269.785 251.453 269.559 C 252.23 264.344 252.977 259.039 253.699 253.906 C 254.207 250.309 254.727 246.59 255.258 242.938 C 256.012 237.738 256.664 233.461 257.309 229.477 C 257.379 229.039 257.449 228.605 257.523 228.168 C 257.922 225.777 258.336 223.305 258.395 220.797 C 258.441 218.789 257.598 218.227 257.09 218.066 C 256.152 217.773 254.996 218.422 254.148 219.715 C 252.02 222.953 251.086 227.258 250.266 231.055 C 250.129 231.676 249.996 232.285 249.863 232.879 C 249.422 234.82 249.008 236.797 248.609 238.707 C 247.879 242.195 247.125 245.801 246.184 249.293 C 246.117 249.535 246.035 249.859 245.937 250.246 C 244.035 257.805 242.223 261.758 240.551 261.996 C 239.672 262.121 238.777 260.938 238.187 259.926 C 234.574 253.75 233.383 246.535 232.23 239.563 C 231.887 237.457 231.527 235.281 231.105 233.172 L 231.094 233.113 C 230.578 230.512 229.613 225.656 225.559 225.848 C 221.766 226.016 220.883 231.039 220.301 234.359 C 220.18 235.047 220.078 235.641 219.965 236.105 C 218.785 240.953 217.352 245.801 215.707 250.512 C 215.477 251.164 215.254 251.84 215.027 252.535 C 213.613 256.824 212.008 261.688 208.137 263.867 C 207.043 264.484 206 264.625 204.953 264.297 C 202.574 263.555 200.93 260.617 200.332 259.387 C 197.781 254.133 196.496 248.289 195.254 242.637 C 194.156 237.656 193.023 232.508 191.027 227.695 C 189.77 224.672 187.98 223.277 185.715 223.563 C 183.02 223.898 181.703 226.719 180.949 228.813 C 179.602 232.547 178.672 236.434 177.773 240.195 C 176.961 243.594 176.121 247.113 174.98 250.477 C 174.715 251.258 174.48 252.059 174.258 252.832 C 173.57 255.184 172.926 257.402 171.395 259.25 C 171.16 259.535 170.902 259.809 170.625 259.895 C 170.023 260.074 169.328 259.375 168.934 258.648 C 168.156 257.215 167.812 255.559 167.5 253.84 C 165.66 243.73 164.473 233.281 163.324 223.176 C 163.043 220.719 162.762 218.266 162.477 215.816 C 162.363 214.836 162.234 213.852 162.105 212.863 C 161.805 210.57 161.496 208.211 161.363 205.883 C 161.801 206.121 162.238 206.383 162.668 206.641 C 162.969 206.82 163.266 206.996 163.562 207.168 C 176.453 214.586 201.184 222.484 221.633 222.512 L 221.777 222.512 C 233.488 222.512 242.906 220.5 250.562 216.363 C 260.121 211.195 266.672 202.207 267.652 192.906 C 268.773 182.242 261.922 171.754 252.379 169.531 C 240.367 166.73 232.172 173.973 224.246 180.98 C 221.906 183.047 219.484 185.188 217.035 186.988 C 208.102 193.559 194.059 201.246 177.824 200.59 C 168.25 200.203 160.703 196.34 157.637 190.262 C 153.383 181.836 158.844 171.352 166.406 167.215 C 176.715 161.574 189.547 164.52 200.77 167.723 C 214.23 171.57 228.484 169.777 239.871 162.813 C 244.27 160.125 248.055 156.465 250.527 152.516 C 253.383 147.957 254.414 143.164 253.508 138.648 C 252.098 131.621 245.863 125.738 237.992 124.012 C 229.621 122.176 221.68 124.992 216.492 127.68 C 209.941 131.074 204.293 135.922 198.828 140.609 C 197.391 141.844 195.934 143.207 194.523 144.527 C 188.766 149.906 182.812 155.469 174.898 155.914 C 167.602 156.324 160.641 151.699 159.051 145.387 C 157.355 138.648 161.699 131.715 166.758 127.828 C 171.168 124.438 176.531 122.367 181.719 120.367 C 182.984 119.875 184.297 119.371 185.57 118.855 C 191.449 116.473 198.719 112.918 202.773 106.516 C 206.605 100.461 206.566 91.012 200.395 86.594 C 197.074 84.211 192.539 83.801 188.84 85.543 C 186.219 86.777 184.168 89.027 183.094 91.684 C 182.578 84.516 186.078 76.879 192.156 72.57 C 198.801 67.855 208.332 66.902 216.43 70.137 C 224.039 73.176 230.426 79.637 233.957 87.855 C 237.16 95.32 238.043 104.047 236.504 113.094 C 236.473 113.281 236.512 113.449 236.621 113.602 C 236.73 113.758 236.879 113.848 237.062 113.879 C 237.25 113.91 237.418 113.875 237.57 113.766 C 237.727 113.656 237.816 113.508 237.848 113.324 C 239.43 104.016 238.516 95.023 235.207 87.32 C 231.535 78.77 224.875 72.047 216.934 68.871 C 208.418 65.469 198.383 66.484 191.367 71.461 C 183.895 76.758 180.09 86.801 182.32 95.344 C 182.359 95.504 182.449 95.633 182.586 95.727 C 182.723 95.824 182.875 95.863 183.043 95.848 C 183.207 95.832 183.348 95.766 183.465 95.645 C 183.582 95.527 183.645 95.383 183.656 95.215 C 183.898 91.68 186.215 88.285 189.422 86.773 C 192.629 85.262 196.719 85.633 199.602 87.699 C 205.145 91.672 205.121 100.258 201.621 105.785 C 197.773 111.863 190.75 115.285 185.059 117.594 C 183.793 118.105 182.488 118.609 181.227 119.094 C 175.953 121.133 170.496 123.238 165.926 126.746 C 160.516 130.906 155.883 138.383 157.73 145.719 C 159.477 152.645 167.059 157.723 174.977 157.273 C 183.383 156.801 189.52 151.066 195.453 145.52 C 196.914 144.152 198.297 142.859 199.715 141.645 C 205.121 137.004 210.707 132.211 217.117 128.891 C 224.172 125.238 231.48 123.977 237.703 125.344 C 244.937 126.93 250.891 132.512 252.172 138.918 C 253.996 148.008 246.953 156.887 239.16 161.652 C 228.098 168.418 214.238 170.156 201.145 166.414 C 189.66 163.137 176.512 160.133 165.75 166.023 C 157.645 170.457 151.82 181.754 156.422 190.875 C 159.715 197.402 167.695 201.543 177.77 201.953 C 178.445 201.98 179.117 201.992 179.785 201.992 C 195.543 201.992 209.102 194.512 217.84 188.086 C 220.344 186.246 222.785 184.086 225.148 182 C 232.812 175.223 240.742 168.215 252.07 170.855 C 260.969 172.93 267.352 182.758 266.297 192.762 C 265.363 201.625 259.086 210.207 249.914 215.164 C 242.461 219.191 233.258 221.152 221.777 221.152 L 221.637 221.152 C 201.422 221.125 176.98 213.316 164.242 205.988 C 163.953 205.82 163.66 205.645 163.363 205.469 C 162.57 204.996 161.754 204.508 160.914 204.129 C 160.805 204.078 160.695 204.059 160.578 204.07 C 160.461 204.078 160.352 204.117 160.254 204.18 C 160.156 204.246 160.078 204.332 160.027 204.434 C 159.973 204.539 159.945 204.652 159.949 204.77 C 160.035 207.535 160.402 210.336 160.754 213.043 C 160.883 214.023 161.012 215 161.125 215.977 C 161.41 218.422 161.695 220.871 161.969 223.328 C 163.121 233.457 164.312 243.93 166.16 254.086 C 166.492 255.914 166.863 257.688 167.734 259.297 C 168.355 260.445 169.59 261.629 171.02 261.199 C 171.645 261.008 172.09 260.547 172.445 260.121 C 174.156 258.055 174.871 255.59 175.562 253.211 C 175.785 252.453 176.012 251.668 176.27 250.914 C 177.434 247.488 178.281 243.941 179.098 240.512 C 179.988 236.785 180.91 232.934 182.23 229.273 C 183.234 226.484 184.395 225.098 185.883 224.914 C 187.488 224.715 188.762 225.793 189.77 228.219 C 191.719 232.918 192.84 238.008 193.922 242.93 C 195.18 248.656 196.484 254.582 199.105 259.984 C 199.945 261.707 201.762 264.73 204.547 265.598 C 205.949 266.039 207.383 265.855 208.805 265.055 C 213.137 262.617 214.828 257.488 216.32 252.961 C 216.547 252.273 216.766 251.605 216.992 250.961 C 218.652 246.211 220.098 241.32 221.289 236.426 C 221.41 235.922 221.52 235.305 221.645 234.598 C 222.152 231.703 222.918 227.328 225.621 227.207 C 228.289 227.074 229.125 230.191 229.758 233.379 L 229.77 233.438 C 230.187 235.523 230.543 237.688 230.887 239.781 C 232.059 246.879 233.27 254.219 237.012 260.613 C 238.176 262.609 239.434 263.527 240.742 263.344 C 243.758 262.914 245.73 256.648 247.262 250.578 C 247.355 250.199 247.434 249.883 247.5 249.648 C 248.449 246.117 249.207 242.492 249.941 238.988 C 250.34 237.082 250.754 235.109 251.191 233.18 C 251.328 232.586 251.461 231.969 251.594 231.344 C 252.395 227.664 253.297 223.488 255.285 220.461 C 255.875 219.563 256.488 219.305 256.684 219.367 C 256.836 219.414 257.055 219.824 257.031 220.766 C 256.977 223.176 256.57 225.602 256.18 227.945 C 256.105 228.383 256.035 228.82 255.965 229.258 C 255.316 233.25 254.664 237.535 253.91 242.742 C 253.379 246.398 252.855 250.117 252.352 253.715 C 251.645 258.734 250.914 263.918 250.156 269.016 C 246.605 270.859 243.246 272.012 239.902 272.531 C 216.195 276.223 191.301 275.379 167.898 270.094 C 167.715 270.055 167.547 270.086 167.387 270.184 C 167.23 270.285 167.129 270.426 167.09 270.609 C 167.047 270.793 167.074 270.965 167.176 271.121 C 167.277 271.281 167.418 271.383 167.602 271.422 C 181.531 274.57 195.992 276.152 210.418 276.152 Z M 210.418 276.152" fill-opacity="1" fill-rule="nonzero" style="fill: #fff; filter: url('#drop-shadow-filter-0'); fill-rule: nonzero; paint-order: fill; stroke: #fff; stroke-width: 2px;"/>
    <path d="M 133.256 85.21 C 133.506 83.269 133.365 81.925 132.869 81.257 C 132.799 81.152 132.729 81.077 132.693 81.042 C 132.658 81.007 132.658 81.007 132.623 81.007 C 132.588 81.007 132.518 81.077 132.447 81.222 C 132.373 81.362 132.338 81.609 132.338 81.96 C 132.338 82.702 132.408 83.339 132.588 83.87 C 132.764 84.398 133.01 84.859 133.256 85.21 Z M 137.99 82.952 L 137.99 83.374 C 137.885 86.659 136.787 88.07 134.635 87.542 C 134.554 87.525 134.472 87.502 134.39 87.474 C 135.277 88.984 135.964 90.372 136.436 91.673 C 137.072 93.329 137.459 94.779 137.635 96.048 C 137.814 97.357 137.92 98.45 137.92 99.404 C 137.92 100.993 137.635 102.548 137.037 104.029 C 136.752 104.806 136.365 105.372 135.869 105.759 C 139.541 106.712 142.264 107.419 144.064 107.915 C 144.24 107.95 144.416 108.056 144.521 108.196 C 144.627 108.372 144.697 108.513 144.697 108.693 C 144.697 108.868 144.627 108.974 144.521 109.079 C 144.416 109.185 144.24 109.185 144.064 109.15 C 142.084 108.622 139.014 107.845 134.811 106.747 C 134.731 106.727 134.651 106.706 134.571 106.686 C 136.84 110.257 137.99 113.265 137.99 115.683 C 137.99 116.07 137.955 116.422 137.885 116.777 C 137.67 117.941 137.248 118.683 136.611 119 C 136.014 119.32 135.377 119.461 134.67 119.391 C 134.881 119.566 135.092 119.707 135.307 119.848 C 136.119 120.414 136.752 120.98 137.283 121.578 C 137.814 122.18 138.061 122.742 138.061 123.344 C 138.061 124.297 137.424 124.828 136.189 124.898 C 135.534 124.926 134.833 124.772 134.086 124.469 C 136.632 128.523 137.92 132.337 137.92 135.915 C 137.92 137.892 137.459 139.161 136.506 139.763 C 135.764 140.224 134.811 140.259 133.611 139.833 C 132.232 139.306 131.314 138.458 130.787 137.22 C 130.432 136.267 130.467 135.524 130.928 134.997 C 131.35 134.536 131.951 134.466 132.729 134.747 C 132.904 134.821 133.045 134.927 133.15 135.067 C 133.256 135.243 133.291 135.384 133.291 135.56 C 133.256 135.739 133.186 135.88 133.045 135.95 C 132.939 136.021 132.764 136.021 132.588 135.95 C 132.268 135.845 132.057 135.845 131.951 135.985 C 131.775 136.231 131.74 136.548 131.916 137.009 C 132.232 137.751 132.834 138.278 133.752 138.634 C 134.564 138.915 135.236 138.915 135.693 138.634 C 136.365 138.173 136.682 137.149 136.682 135.56 C 136.682 131.923 135.271 128.075 132.447 123.978 C 132.338 123.802 132.268 123.661 132.303 123.485 C 132.31 123.451 132.318 123.419 132.327 123.39 C 131.978 123.063 131.686 122.692 131.455 122.285 C 131.209 121.898 131.104 121.402 131.104 120.801 C 131.104 120.238 131.385 119.637 131.951 118.965 C 131.775 118.859 131.635 118.754 131.49 118.648 C 131.314 118.543 131.209 118.402 131.139 118.223 C 131.068 118.047 131.068 117.906 131.139 117.73 C 131.174 117.59 131.279 117.519 131.42 117.484 C 131.564 117.449 131.846 117.519 132.303 117.66 C 133.471 118.047 134.459 118.187 135.201 118.082 C 135.975 117.976 136.471 117.375 136.646 116.246 C 137.035 113.818 135.809 110.519 132.939 106.271 C 126.318 104.582 118.955 102.658 110.799 100.497 C 110.623 100.427 110.482 100.321 110.377 100.181 C 110.271 100.04 110.201 99.864 110.201 99.689 C 110.201 99.509 110.271 99.404 110.377 99.298 C 110.482 99.193 110.623 99.193 110.799 99.228 C 118.072 101.169 124.748 102.935 130.822 104.489 C 130.01 103.466 129.338 102.122 128.771 100.497 C 128.244 98.841 128.104 97.075 128.42 95.275 C 128.455 95.095 128.525 94.989 128.666 94.919 C 128.807 94.884 128.951 94.884 129.127 94.954 C 129.303 95.06 129.443 95.165 129.549 95.345 C 129.654 95.521 129.689 95.661 129.654 95.837 C 129.408 97.357 129.479 98.841 129.939 100.286 C 130.396 101.771 130.998 102.97 131.775 103.888 C 131.986 104.138 132.268 104.419 132.588 104.665 C 132.939 104.946 133.326 105.091 133.752 105.126 C 134.775 105.056 135.518 104.384 135.975 103.146 C 136.436 101.911 136.682 100.571 136.682 99.052 C 136.682 98.099 136.576 97.04 136.4 95.802 C 136.225 94.603 135.869 93.259 135.271 91.743 C 134.67 90.224 133.787 88.564 132.623 86.693 C 132.518 86.517 132.482 86.341 132.518 86.161 C 132.524 86.138 132.53 86.116 132.538 86.095 C 132.217 85.704 131.921 85.23 131.67 84.683 C 131.279 83.87 131.104 82.843 131.104 81.644 C 131.104 80.55 131.42 79.913 132.092 79.737 C 132.553 79.632 133.01 79.808 133.471 80.269 C 133.928 80.726 134.248 81.433 134.459 82.421 C 134.705 83.445 134.67 84.718 134.424 86.234 L 134.635 86.304 C 135.447 86.484 136.014 86.198 136.295 85.456 C 136.611 84.753 136.752 83.941 136.752 83.023 C 136.896 78.855 135.553 74.124 132.764 68.862 C 132.658 68.687 132.658 68.542 132.693 68.366 C 132.729 68.226 132.834 68.12 132.975 68.085 C 133.15 68.05 133.291 68.05 133.436 68.12 C 133.611 68.226 133.717 68.331 133.822 68.507 C 136.611 73.628 137.99 78.468 137.99 82.952 Z M 132.338 121.297 C 132.338 121.508 132.408 121.719 132.518 121.933 C 132.834 122.426 133.291 122.816 133.963 123.133 C 134.635 123.449 135.271 123.625 135.869 123.625 C 136.049 123.625 136.26 123.59 136.471 123.484 C 136.682 123.414 136.787 123.273 136.787 123.027 C 136.787 122.637 136.4 122.109 135.623 121.508 C 134.881 120.906 134.033 120.308 133.15 119.742 C 132.975 119.953 132.764 120.203 132.588 120.449 C 132.408 120.695 132.338 120.98 132.338 121.297 Z M 111.4 164.163 C 113.377 164.69 115.213 165.186 116.908 165.643 L 116.908 148.022 C 116.908 147.846 116.979 147.741 117.084 147.635 C 117.189 147.53 117.369 147.53 117.545 147.565 C 117.721 147.6 117.861 147.706 117.967 147.846 C 118.107 148.022 118.178 148.202 118.178 148.378 L 118.178 165.999 C 123.404 167.444 127.432 168.467 130.256 169.069 C 133.186 169.671 135.057 169.671 135.939 169.034 C 136.471 168.682 136.717 167.94 136.717 166.776 C 136.717 165.714 136.506 164.655 136.084 163.596 C 135.658 162.573 135.166 161.585 134.564 160.667 C 133.998 159.749 133.471 158.936 132.939 158.194 L 132.939 158.159 C 132.764 157.913 132.588 157.698 132.447 157.487 C 132.338 157.311 132.268 157.171 132.303 156.995 C 132.338 156.815 132.408 156.71 132.518 156.639 C 132.658 156.569 132.799 156.569 132.975 156.604 C 133.15 156.674 133.291 156.78 133.4 156.956 C 133.541 157.135 133.682 157.346 133.857 157.557 C 133.857 157.592 133.857 157.592 133.893 157.628 C 134.424 158.37 134.986 159.217 135.623 160.241 C 136.26 161.264 136.822 162.362 137.283 163.526 C 137.74 164.69 137.99 165.893 137.99 167.092 C 137.99 168.612 137.6 169.635 136.822 170.163 C 136.257 170.587 135.38 170.803 134.185 170.805 C 136.731 175.675 137.99 180.286 137.99 184.572 L 137.99 184.994 C 137.885 188.279 136.787 189.689 134.635 189.162 C 134.58 189.15 134.524 189.136 134.468 189.119 C 136.824 193.785 137.99 198.209 137.99 202.332 L 137.99 202.754 C 137.885 206.039 136.787 207.449 134.635 206.922 C 134.418 206.876 134.194 206.788 133.967 206.666 C 134.194 207.547 134.371 208.452 134.494 209.39 C 134.67 210.734 134.775 211.968 134.775 213.062 C 134.775 213.593 134.775 214.086 134.74 214.547 C 134.635 215.711 134.389 216.558 134.033 217.125 C 133.822 217.476 133.611 217.726 133.365 217.937 C 136.189 218.961 137.705 220.41 137.955 222.211 C 137.99 222.316 137.99 222.422 137.99 222.527 C 137.99 223.34 137.635 224.047 136.967 224.679 C 136.295 225.211 135.518 225.562 134.67 225.707 C 135.307 226.164 135.834 226.695 136.295 227.257 C 137.389 228.672 137.955 229.906 137.955 230.929 C 137.955 231.601 137.705 232.132 137.248 232.449 C 136.33 233.05 134.494 232.91 131.705 231.992 C 131.525 231.918 131.35 231.812 131.244 231.636 C 131.139 231.496 131.104 231.355 131.104 231.179 C 131.139 231 131.209 230.859 131.314 230.789 C 131.42 230.718 131.6 230.718 131.775 230.754 C 133.256 231.215 134.354 231.461 135.021 231.496 C 135.729 231.531 136.189 231.461 136.4 231.285 C 136.611 231.179 136.717 230.929 136.717 230.578 C 136.717 229.941 136.295 229.058 135.447 227.965 C 134.6 226.871 133.365 226.058 131.74 225.527 C 131.525 225.457 131.35 225.351 131.244 225.211 C 131.139 225.07 131.104 224.894 131.104 224.715 C 131.104 224.539 131.174 224.433 131.279 224.328 C 131.385 224.257 131.564 224.222 131.74 224.257 C 132.729 224.504 133.576 224.539 134.318 224.363 C 135.057 224.187 135.623 223.941 136.014 223.586 C 136.541 223.129 136.787 222.597 136.717 222.031 C 136.541 221.183 135.975 220.48 134.951 219.914 C 133.928 219.382 132.869 218.961 131.74 218.679 C 131.564 218.644 131.385 218.535 131.279 218.359 C 131.174 218.254 131.104 218.078 131.068 217.867 C 131.033 217.761 131.068 217.617 131.139 217.476 C 131.244 217.371 131.35 217.3 131.525 217.265 C 131.705 217.265 131.916 217.195 132.197 217.054 C 132.482 216.914 132.729 216.593 132.975 216.136 C 133.221 215.675 133.4 215.004 133.506 214.121 C 133.576 213.168 133.541 211.933 133.4 210.343 C 133.291 208.754 132.975 207.203 132.482 205.683 C 132.462 205.58 132.453 205.478 132.464 205.382 C 132.171 205.009 131.901 204.567 131.67 204.063 C 131.279 203.25 131.104 202.223 131.104 201.024 C 131.104 199.93 131.42 199.293 132.092 199.117 C 132.553 199.012 133.01 199.188 133.471 199.649 C 133.928 200.106 134.248 200.813 134.459 201.801 C 134.705 202.824 134.67 204.098 134.424 205.613 L 134.635 205.684 C 135.447 205.863 136.014 205.578 136.295 204.836 C 136.611 204.133 136.752 203.32 136.752 202.402 C 136.896 198.234 135.553 193.504 132.764 188.242 C 132.685 188.111 132.665 187.997 132.674 187.875 C 132.301 187.455 131.956 186.925 131.67 186.302 C 131.279 185.49 131.104 184.462 131.104 183.263 C 131.104 182.169 131.42 181.533 132.092 181.357 C 132.553 181.251 133.01 181.427 133.471 181.888 C 133.928 182.345 134.248 183.052 134.459 184.04 C 134.705 185.064 134.67 186.337 134.424 187.853 L 134.635 187.923 C 135.447 188.103 136.014 187.818 136.295 187.076 C 136.611 186.372 136.752 185.56 136.752 184.642 C 136.894 180.542 135.596 175.897 132.898 170.737 C 132.31 170.679 131.665 170.583 130.963 170.448 C 128.139 169.882 123.865 168.823 118.178 167.233 L 118.178 176.483 C 118.178 176.663 118.107 176.768 117.967 176.839 C 117.861 176.944 117.721 176.979 117.545 176.944 C 117.369 176.874 117.189 176.768 117.084 176.628 C 116.979 176.483 116.908 176.307 116.908 176.132 L 116.908 166.882 C 115.213 166.421 113.377 165.928 111.4 165.397 C 111.225 165.362 111.08 165.257 110.975 165.081 C 110.869 164.936 110.799 164.796 110.799 164.62 C 110.799 164.444 110.869 164.303 110.975 164.198 C 111.08 164.128 111.225 164.128 111.4 164.163 Z M 133.256 186.829 C 133.506 184.888 133.365 183.544 132.869 182.876 C 132.799 182.771 132.729 182.697 132.693 182.662 C 132.658 182.626 132.658 182.626 132.623 182.626 C 132.588 182.626 132.518 182.697 132.447 182.841 C 132.373 182.982 132.338 183.228 132.338 183.579 C 132.338 184.322 132.408 184.958 132.588 185.49 C 132.764 186.017 133.01 186.478 133.256 186.829 Z M 133.256 204.59 C 133.506 202.649 133.365 201.305 132.869 200.637 C 132.799 200.531 132.729 200.457 132.693 200.422 C 132.658 200.387 132.658 200.387 132.623 200.387 C 132.588 200.387 132.518 200.457 132.447 200.602 C 132.373 200.742 132.338 200.988 132.338 201.34 C 132.338 202.082 132.408 202.719 132.588 203.25 C 132.764 203.777 133.01 204.238 133.256 204.59 Z M 151.971 259.991 C 151.9 266.276 149.607 269.983 145.088 271.147 C 142.791 271.608 140.389 271.323 137.885 270.264 C 135.412 269.241 133.291 267.616 131.525 265.428 C 128.033 260.803 127.713 255.893 130.537 250.702 C 130.607 250.596 130.717 250.526 130.893 250.491 C 131.068 250.491 131.209 250.561 131.385 250.667 C 131.525 250.772 131.635 250.913 131.67 251.092 C 131.74 251.268 131.74 251.444 131.67 251.585 C 129.092 256.284 129.338 260.659 132.408 264.792 C 133.998 266.733 135.869 268.182 138.096 269.1 C 140.318 270.053 142.475 270.299 144.557 269.877 C 149.396 268.569 151.373 264.014 150.49 256.21 C 149.959 252.713 148.971 249.854 147.521 247.631 C 146.076 245.405 144.627 243.71 143.107 242.545 C 139.049 239.366 135.131 238.026 131.35 238.487 C 129.197 238.874 127.502 239.686 126.338 240.92 C 125.17 242.159 124.322 243.639 123.76 245.299 C 123.193 246.96 122.736 248.69 122.381 250.42 C 121.994 252.713 121.357 254.659 120.51 256.284 C 119.662 257.905 118.178 258.647 116.025 258.542 C 114.049 258.295 112.248 257.237 110.623 255.327 C 108.471 252.678 107.553 249.713 107.799 246.463 C 108.115 243.674 109.139 242.194 110.939 241.979 C 112.811 241.874 114.756 243.042 116.768 245.545 C 116.873 245.725 116.943 245.901 116.943 246.042 C 116.943 246.217 116.873 246.323 116.768 246.428 C 116.662 246.538 116.521 246.538 116.342 246.502 C 116.166 246.463 116.025 246.358 115.885 246.217 C 114.26 244.206 112.74 243.217 111.365 243.252 C 110.057 243.428 109.279 244.627 109.033 246.924 C 108.822 249.784 109.635 252.362 111.471 254.659 C 112.775 256.174 114.225 257.057 115.814 257.237 C 117.545 257.342 118.779 256.706 119.486 255.292 C 120.193 253.881 120.756 252.045 121.182 249.819 C 121.498 248.088 121.994 246.323 122.592 244.557 C 123.193 242.792 124.146 241.241 125.42 239.897 C 126.689 238.557 128.49 237.639 130.857 237.178 C 135.021 236.647 139.295 238.131 143.709 241.627 C 145.369 242.897 146.959 244.737 148.514 247.135 C 150.1 249.573 151.162 252.643 151.725 256.354 C 151.9 257.624 151.971 258.823 151.971 259.991 Z" fill-opacity="1" style="fill: #fff"/>
    <path d="M 234.243 299.061 L 232.848 299.061 L 229.762 295.108 L 229.02 295.108 L 229.02 299.061 L 227.934 299.061 L 227.934 290.506 L 229.02 290.506 L 229.02 294.124 L 229.762 294.124 L 232.727 290.506 L 234.063 290.506 L 230.704 294.585 Z M 239.225 291.499 L 239.225 294.299 L 242.288 294.299 L 242.288 295.276 L 239.225 295.276 L 239.225 298.073 L 242.702 298.073 L 242.702 299.061 L 238.116 299.061 L 238.116 290.506 L 242.702 290.506 L 242.702 291.499 Z M 251.615 299.061 L 249.69 295.737 L 248.072 295.737 L 248.072 299.061 L 246.986 299.061 L 246.986 290.506 L 249.615 290.506 C 250.576 290.506 251.279 290.67 251.779 291.018 C 252.393 291.413 252.697 292.069 252.697 292.991 C 252.697 293.917 252.408 294.651 251.826 295.1 C 251.541 295.342 251.19 295.518 250.752 295.624 L 252.885 299.061 Z M 248.072 294.792 L 249.475 294.792 C 250.24 294.792 250.799 294.674 251.147 294.323 C 251.428 294.049 251.584 293.643 251.584 293.034 C 251.584 292.452 251.412 292.061 251.127 291.827 C 250.764 291.53 250.225 291.448 249.475 291.448 L 248.072 291.448 Z M 258.852 294.991 L 256.031 290.506 L 257.27 290.506 L 259.399 294.003 L 261.524 290.506 L 262.758 290.506 L 259.942 294.979 L 259.942 299.061 L 258.852 299.061 Z M 222.154 297.014 L 218.286 297.014 L 217.556 299.061 L 216.419 299.061 L 219.572 290.506 L 220.872 290.506 L 224.025 299.061 L 222.892 299.061 Z M 221.814 296.053 L 220.224 291.6 L 218.63 296.053 Z M 213.176 296.741 C 213.176 298.1 212.235 299.061 210.758 299.061 L 207.43 299.061 L 207.43 290.506 L 210.024 290.506 C 211.547 290.506 212.551 291.436 212.551 292.772 C 212.551 293.592 212.172 294.268 211.489 294.596 C 212.497 294.85 213.176 295.561 213.176 296.741 Z M 210.016 291.463 L 208.481 291.463 L 208.481 294.256 L 210.219 294.256 C 211.001 294.256 211.528 293.62 211.528 292.842 C 211.528 292.061 210.965 291.463 210.016 291.463 Z M 212.118 296.631 C 212.118 295.799 211.524 295.155 210.497 295.155 L 208.481 295.155 L 208.481 298.096 L 210.575 298.096 C 211.555 298.096 212.118 297.42 212.118 296.631 Z M 194.236 291.499 L 194.236 294.299 L 197.298 294.299 L 197.298 295.276 L 194.236 295.276 L 194.236 298.073 L 197.712 298.073 L 197.712 299.061 L 193.126 299.061 L 193.126 290.506 L 197.712 290.506 L 197.712 291.499 Z M 182.106 290.506 L 184.864 290.506 C 187.473 290.506 188.813 292.28 188.813 294.78 C 188.813 297.288 187.473 299.061 184.864 299.061 L 182.106 299.061 Z M 184.825 298.073 C 186.759 298.073 187.68 296.776 187.68 294.78 C 187.68 292.799 186.759 291.499 184.825 291.499 L 183.192 291.499 L 183.192 298.073 Z M 176.326 297.014 L 172.459 297.014 L 171.728 299.061 L 170.591 299.061 L 173.744 290.506 L 175.045 290.506 L 178.197 299.061 L 177.064 299.061 Z M 175.986 296.053 L 174.396 291.6 L 172.802 296.053 Z M 165.953 299.061 L 165.383 292.003 L 162.649 299.061 L 161.996 299.061 L 159.282 292.026 L 158.703 299.061 L 157.641 299.061 L 158.293 290.506 L 159.727 290.506 L 162.321 297.178 L 164.918 290.506 L 166.364 290.506 L 167.008 299.061 Z M 146.945 290.506 L 149.703 290.506 C 152.312 290.506 153.652 292.28 153.652 294.78 C 153.652 297.288 152.312 299.061 149.703 299.061 L 146.945 299.061 Z M 149.664 298.073 C 151.598 298.073 152.519 296.776 152.519 294.78 C 152.519 292.799 151.598 291.499 149.664 291.499 L 148.031 291.499 L 148.031 298.073 Z M 142.061 290.506 L 142.061 299.061 L 140.913 299.061 L 136.299 292.143 L 136.299 299.061 L 135.233 299.061 L 135.233 290.506 L 136.37 290.506 L 140.979 297.397 L 140.979 290.506 Z M 129.453 297.014 L 125.585 297.014 L 124.855 299.061 L 123.718 299.061 L 126.871 290.506 L 128.171 290.506 L 131.324 299.061 L 130.191 299.061 Z M 129.113 296.053 L 127.523 291.6 L 125.929 296.053 Z M 113.302 290.506 L 114.396 290.506 L 114.396 294.288 L 118.724 294.288 L 118.724 290.506 L 119.814 290.506 L 119.814 299.061 L 118.724 299.061 L 118.724 295.264 L 114.396 295.264 L 114.396 299.061 L 113.302 299.061 Z" fill-opacity="1" style="fill: #fff"/>
  </g>
</svg>